<?xml version="1.0" encoding="UTF-8"?>
<svg xmlns="http://www.w3.org/2000/svg" width="16" height="16" viewBox="0 0 16 16">
  <g fill="#2e3436">
    <path d="M1.90,1.50 H14.10 A0.90,0.90 0 0 1 15.00,2.40 V3.60 A0.90,0.90 0 0 1 14.10,4.50 H1.90 A0.90,0.90 0 0 1 1.00,3.60 V2.40 A0.90,0.90 0 0 1 1.90,1.50 Z"/>
    <path fill-rule="evenodd" d="M2.00,5.50 H14.00 V12.70 A1.80,1.80 0 0 1 12.20,14.50 H3.80 A1.80,1.80 0 0 1 2.00,12.70 Z M4.00,7.50 H12.00 V12.50 H4.00 Z"/>
    <path d="M6.80,9.00 H9.20 A0.80,0.80 0 0 1 9.20,10.60 H6.80 A0.80,0.80 0 0 1 6.80,9.00 Z"/>
  </g>
</svg>
